<svg xmlns="http://www.w3.org/2000/svg" viewBox="2273.279 513.216 60.23 60.23"><g transform="translate(2195 356)"><circle cx="30.115" cy="30.115" r="30.115" transform="translate(78.279 157.216)" fill="#ffd54d"/><path d="M111.843 191.332h-1.061a5.055 5.055 0 0 0 3.449-4.8c0-2.341-1.459-4.141-2.587-5.462l-.265-.36a7.314 7.314 0 0 1-2.123-4.2c0-.06 0-.06.066-.12a4.548 4.548 0 0 1 .265-.54 2.937 2.937 0 0 0 .4-1.2 1.183 1.183 0 0 0-.464-1.02 1.583 1.583 0 0 0-1.128-.36 1.435 1.435 0 0 0-1.327 1.08 1.508 1.508 0 0 0 .464 1.32 2.708 2.708 0 0 1 .332.6.8.8 0 0 1 .133.36 7.4 7.4 0 0 1-2.123 4.021l-.332.36c-1.26 1.5-2.587 3.3-2.587 5.582a4.929 4.929 0 0 0 3.382 4.682h-1.459a4.817 4.817 0 0 0-5.041 4.561v21.539h17.047v-21.541a4.81 4.81 0 0 0-5.041-4.502zm-7.695-4.681c0-1.981 1.194-3.421 2.322-4.8.133-.18.265-.3.4-.48a9.719 9.719 0 0 0 1.725-2.581 9.719 9.719 0 0 0 1.725 2.581c.133.18.265.3.4.48 1.194 1.44 2.322 2.821 2.322 4.8a4.46 4.46 0 0 1-8.889 0z" fill="#fff"/></g></svg>