<svg xmlns="http://www.w3.org/2000/svg" viewBox="2273.279 635.732 60.23 60.23"><g transform="translate(2273.279 635.732)"><circle cx="30.115" cy="30.115" r="30.115" fill="#6c2e5b"/><path d="M34.294 42.586a12.057 12.057 0 0 0-3.449 3.648v-9.287C41.657 36.615 41.79 26.533 41.79 26.4V15.522l-.663.531a5.876 5.876 0 0 1-3.118 1.26 7.552 7.552 0 0 0-3.118 1.061 22.8 22.8 0 0 0-4.245-6.434l-.464-.464-.2.663a7.636 7.636 0 0 1-1.924 2.72 11.639 11.639 0 0 0-2.521 3.516 9.752 9.752 0 0 0-3.516-1.327 5.3 5.3 0 0 1-2.388-.929l-.663-.531V26.4c0 4.577 1.791 9.95 10.016 10.481V60.23h1.925v-5.041a12.7 12.7 0 0 0 2.72.332 10.6 10.6 0 0 0 8.889-4.71 19.34 19.34 0 0 0 2.786-10.348c-3.583 2.189-7.165-.597-11.012 2.123zM19.771 26.401v-9.225a10.638 10.638 0 0 0 2.056.663 7.822 7.822 0 0 1 3.648 1.526l.464.332.2-.531a10.859 10.859 0 0 1 2.521-3.715 10.128 10.128 0 0 0 1.857-2.388 22.588 22.588 0 0 1 3.648 5.771c.066.2.133.332.2.531v.066a16.383 16.383 0 0 1-.066 9.287.959.959 0 0 0-.133.464 4.9 4.9 0 0 1-1.128 1.725c-.265.2-.464.332-.663.464-.4.265-.73.464-.862.929a1.482 1.482 0 0 0 .531 1.791 1.422 1.422 0 0 0 .8.265.841.841 0 0 0 .4-.066 1.537 1.537 0 0 0 .995-.929 3.541 3.541 0 0 0 .133-1.459 4.975 4.975 0 0 1 0-.995c.066-.332.2-.73.332-1.194l.133-.531c0-.066.066-.133.066-.2a16.728 16.728 0 0 0 .133-9.552 7.1 7.1 0 0 1 3.118-1.194 7.254 7.254 0 0 0 2.786-.929v9.087c0 .066-.133 9.751-10.613 9.751q-10.556.007-10.556-9.744z" fill="#fff"/></g></svg>