<svg xmlns="http://www.w3.org/2000/svg" viewBox="2273.279 759.243 60.23 60.23"><g transform="translate(2195 356)"><circle cx="30.115" cy="30.115" r="30.115" transform="translate(78.279 403.243)" fill="#5eaa76"/><path d="M93.734 421.883v22.951h29.319v-22.951zm3.715 9.287a.212.212 0 0 1 .2-.2h18.44a1.738 1.738 0 0 0 .531-.2c.2-.066.4-.2.6-.265a2.046 2.046 0 0 1 1.194-.332 1.138 1.138 0 0 1 .6 1.924 1.1 1.1 0 0 1-.8.332h-.066a1.558 1.558 0 0 1-1.061-.332 4.571 4.571 0 0 0-.531-.2.983.983 0 0 0-.464-.066H97.581a.212.212 0 0 1-.2-.2v-.464zm21.558 9.154a1.1 1.1 0 0 1-.8.332h-.066a1.558 1.558 0 0 1-1.061-.332 4.547 4.547 0 0 0-.531-.2.842.842 0 0 0-.4-.066H97.581a.212.212 0 0 1-.2-.2v-.464a.212.212 0 0 1 .2-.2h18.44a1.732 1.732 0 0 0 .531-.2c.2-.066.4-.2.6-.265a2.048 2.048 0 0 1 1.194-.332 1.2 1.2 0 0 1 .929 1.061 1.113 1.113 0 0 1-.268.865zm.332-4.577a.212.212 0 0 1-.2.2h-18.505a.719.719 0 0 0-.4.066 4.593 4.593 0 0 0-.531.2 4.006 4.006 0 0 1-1.061.332h-.066a1.1 1.1 0 0 1-.8-.332 1.261 1.261 0 0 1-.332-.862 1.2 1.2 0 0 1 .929-1.061 2.047 2.047 0 0 1 1.194.332 2.358 2.358 0 0 0 .6.265 1.735 1.735 0 0 0 .531.2h18.44a.212.212 0 0 1 .2.2v.464zm0-8.292a.212.212 0 0 1-.2.2h-18.44a1.13 1.13 0 0 0-.464.066 4.593 4.593 0 0 0-.531.2 4 4 0 0 1-1.061.332h-.066a1.1 1.1 0 0 1-.8-.332 1.261 1.261 0 0 1-.332-.862 1.2 1.2 0 0 1 .929-1.061 2.047 2.047 0 0 1 1.194.332 2.362 2.362 0 0 0 .6.265 1.738 1.738 0 0 0 .531.2h18.44a.212.212 0 0 1 .2.2v.464z" fill="#fff"/></g></svg>